<?xml version="1.0" encoding="utf-8"?>
<COLLADA xmlns="http://www.collada.org/2005/11/COLLADASchema" version="1.4.1" xmlns:xsi="http://www.w3.org/2001/XMLSchema-instance">
  <asset>
    <contributor>
      <author>Blender User</author>
      <authoring_tool>Blender 2.82.7</authoring_tool>
    </contributor>
    <created>2025-01-22T11:35:53</created>
    <modified>2025-01-22T11:35:53</modified>
    <unit name="meter" meter="1"/>
    <up_axis>Z_UP</up_axis>
  </asset>
  <library_cameras>
    <camera id="Camera_001-camera" name="Camera.001">
      <optics>
        <technique_common>
          <perspective>
            <xfov sid="xfov">39.59775</xfov>
            <aspect_ratio>1.777778</aspect_ratio>
            <znear sid="znear">0.1</znear>
            <zfar sid="zfar">100</zfar>
          </perspective>
        </technique_common>
      </optics>
      <extra>
        <technique profile="blender">
          <shiftx sid="shiftx" type="float">0</shiftx>
          <shifty sid="shifty" type="float">0</shifty>
          <dof_distance sid="dof_distance" type="float">10</dof_distance>
        </technique>
      </extra>
    </camera>
    <camera id="Camera-camera" name="Camera">
      <optics>
        <technique_common>
          <perspective>
            <xfov sid="xfov">39.59775</xfov>
            <aspect_ratio>1.777778</aspect_ratio>
            <znear sid="znear">0.1</znear>
            <zfar sid="zfar">100</zfar>
          </perspective>
        </technique_common>
      </optics>
      <extra>
        <technique profile="blender">
          <shiftx sid="shiftx" type="float">0</shiftx>
          <shifty sid="shifty" type="float">0</shifty>
          <dof_distance sid="dof_distance" type="float">10</dof_distance>
        </technique>
      </extra>
    </camera>
  </library_cameras>
  <library_lights>
    <light id="Light_001-light" name="Light.001">
      <technique_common>
        <point>
          <color sid="color">1000 1000 1000</color>
          <constant_attenuation>1</constant_attenuation>
          <linear_attenuation>0</linear_attenuation>
          <quadratic_attenuation>0.001599967</quadratic_attenuation>
        </point>
      </technique_common>
      <extra>
        <technique profile="blender">
          <type sid="type" type="int">0</type>
          <flag sid="flag" type="int">0</flag>
          <mode sid="mode" type="int">2097153</mode>
          <gamma sid="blender_gamma" type="float">1</gamma>
          <red sid="red" type="float">1</red>
          <green sid="green" type="float">1</green>
          <blue sid="blue" type="float">1</blue>
          <shadow_r sid="blender_shadow_r" type="float">0</shadow_r>
          <shadow_g sid="blender_shadow_g" type="float">0</shadow_g>
          <shadow_b sid="blender_shadow_b" type="float">0</shadow_b>
          <energy sid="blender_energy" type="float">1000</energy>
          <dist sid="blender_dist" type="float">25</dist>
          <spotsize sid="spotsize" type="float">75</spotsize>
          <spotblend sid="spotblend" type="float">0.15</spotblend>
          <att1 sid="att1" type="float">0</att1>
          <att2 sid="att2" type="float">1</att2>
          <falloff_type sid="falloff_type" type="int">2</falloff_type>
          <clipsta sid="clipsta" type="float">0.04999995</clipsta>
          <clipend sid="clipend" type="float">30.002</clipend>
          <bias sid="bias" type="float">1</bias>
          <soft sid="soft" type="float">3</soft>
          <bufsize sid="bufsize" type="int">512</bufsize>
          <samp sid="samp" type="int">3</samp>
          <buffers sid="buffers" type="int">1</buffers>
          <area_shape sid="area_shape" type="int">1</area_shape>
          <area_size sid="area_size" type="float">0.1</area_size>
          <area_sizey sid="area_sizey" type="float">0.1</area_sizey>
          <area_sizez sid="area_sizez" type="float">1</area_sizez>
        </technique>
      </extra>
    </light>
    <light id="Light-light" name="Light">
      <technique_common>
        <point>
          <color sid="color">1000 1000 1000</color>
          <constant_attenuation>1</constant_attenuation>
          <linear_attenuation>0</linear_attenuation>
          <quadratic_attenuation>0.00111109</quadratic_attenuation>
        </point>
      </technique_common>
      <extra>
        <technique profile="blender">
          <type sid="type" type="int">0</type>
          <flag sid="flag" type="int">0</flag>
          <mode sid="mode" type="int">1</mode>
          <gamma sid="blender_gamma" type="float">1</gamma>
          <red sid="red" type="float">1</red>
          <green sid="green" type="float">1</green>
          <blue sid="blue" type="float">1</blue>
          <shadow_r sid="blender_shadow_r" type="float">0</shadow_r>
          <shadow_g sid="blender_shadow_g" type="float">0</shadow_g>
          <shadow_b sid="blender_shadow_b" type="float">0</shadow_b>
          <energy sid="blender_energy" type="float">1000</energy>
          <dist sid="blender_dist" type="float">29.99998</dist>
          <spotsize sid="spotsize" type="float">75</spotsize>
          <spotblend sid="spotblend" type="float">0.15</spotblend>
          <att1 sid="att1" type="float">0</att1>
          <att2 sid="att2" type="float">1</att2>
          <falloff_type sid="falloff_type" type="int">2</falloff_type>
          <clipsta sid="clipsta" type="float">0.04999995</clipsta>
          <clipend sid="clipend" type="float">30.002</clipend>
          <bias sid="bias" type="float">1</bias>
          <soft sid="soft" type="float">3</soft>
          <bufsize sid="bufsize" type="int">2880</bufsize>
          <samp sid="samp" type="int">3</samp>
          <buffers sid="buffers" type="int">1</buffers>
          <area_shape sid="area_shape" type="int">1</area_shape>
          <area_size sid="area_size" type="float">0.1</area_size>
          <area_sizey sid="area_sizey" type="float">0.1</area_sizey>
          <area_sizez sid="area_sizez" type="float">1</area_sizez>
        </technique>
      </extra>
    </light>
  </library_lights>
  <library_effects>
    <effect id="gate_003-effect">
      <profile_COMMON>
        <newparam sid="MRSGate_png-surface">
          <surface type="2D">
            <init_from>MRSGate_png</init_from>
          </surface>
        </newparam>
        <newparam sid="MRSGate_png-sampler">
          <sampler2D>
            <source>MRSGate_png-surface</source>
          </sampler2D>
        </newparam>
        <technique sid="common">
          <lambert>
            <emission>
              <color sid="emission">0 0 0 1</color>
            </emission>
            <diffuse>
              <texture texture="MRSGate_png-sampler" texcoord="Cube_025-mesh-map-0"/>
            </diffuse>
            <index_of_refraction>
              <float sid="ior">1.45</float>
            </index_of_refraction>
          </lambert>
        </technique>
      </profile_COMMON>
    </effect>
  </library_effects>
  <library_images>
    <image id="MRSGate_png" name="MRSGate_png">
      <init_from>MRSGate.png</init_from>
    </image>
  </library_images>
  <library_materials>
    <material id="gate_003-material" name="gate.003">
      <instance_effect url="#gate_003-effect"/>
    </material>
  </library_materials>
  <library_geometries>
    <geometry id="Cube_025-mesh" name="Cube.025">
      <mesh>
        <source id="Cube_025-mesh-positions">
          <float_array id="Cube_025-mesh-positions-array" count="48">-0.95 0.04999995 -0.95 -0.95 0.04999995 0.95 0.95 0.04999995 -0.95 0.95 0.04999995 0.95 -0.95 -0.04999995 -0.95 -0.95 -0.04999995 0.95 0.95 -0.04999995 -0.95 0.95 -0.04999995 0.95 -0.5277778 -0.04046672 -0.5277778 -0.5277778 0.04046672 -0.5277778 -0.5277778 -0.04046672 0.5277778 -0.5277778 0.04046672 0.5277778 0.5277778 -0.04046672 0.5277778 0.5277778 0.04046672 0.5277778 0.5277778 -0.04046672 -0.5277778 0.5277778 0.04046672 -0.5277778</float_array>
          <technique_common>
            <accessor source="#Cube_025-mesh-positions-array" count="16" stride="3">
              <param name="X" type="float"/>
              <param name="Y" type="float"/>
              <param name="Z" type="float"/>
            </accessor>
          </technique_common>
        </source>
        <source id="Cube_025-mesh-normals">
          <float_array id="Cube_025-mesh-normals-array" count="60">0 0.9997453 0.02257281 1 0 0 0 -0.9997453 0.02257281 -1 0 0 0 0 -1 0 0 1 0 -0.9997453 -0.02257281 0 0.9997453 -0.02257281 0.02257275 0.9997453 0 0 0.9997453 0.02257275 0.02257281 0.9997452 0 -0.02257275 -0.9997453 0 0 -0.9997453 0.02257275 -0.02257281 -0.9997452 0 0.02257275 -0.9997453 0 0 -0.9997453 -0.02257275 0.02257281 -0.9997452 0 -0.02257275 0.9997453 0 0 0.9997453 -0.02257275 -0.02257281 0.9997452 0</float_array>
          <technique_common>
            <accessor source="#Cube_025-mesh-normals-array" count="20" stride="3">
              <param name="X" type="float"/>
              <param name="Y" type="float"/>
              <param name="Z" type="float"/>
            </accessor>
          </technique_common>
        </source>
        <source id="Cube_025-mesh-map-0">
          <float_array id="Cube_025-mesh-map-0-array" count="192">0.9999 1.00105e-4 0.8442393 0.1557607 1.00011e-4 9.998e-5 1.2666e-6 0 0.9999988 1 0 1 0.9999998 0 0.8443081 0.1556918 0 1.56854e-7 0 0 1 1 1.63912e-6 1 1 0 0 1 1.2666e-6 0 0 1 1 0 0.9999988 1 1.11759e-6 1 0.9999989 0 1 1 0.1556919 0.8443082 1 1 0 1 0.1557607 0.8442393 0.9999 0.9999 9.998e-5 0.9999 1 0 0 1 8.19563e-7 0 0 1 1 0 0.9999992 1 0 1 1 0 0.9999992 1 0.9999 1.00105e-4 0.9999 0.9999 0.8442392 0.844239 0.8442393 0.1557607 0.1557607 0.1557607 1.00011e-4 9.998e-5 0.9999 1.00105e-4 0.8442392 0.844239 0.8442393 0.1557607 1.2666e-6 0 1 0 0.9999988 1 0.9999998 0 1 1 0.8443083 0.8443081 0.8443081 0.1556918 0.1556918 0.1556919 0 1.56854e-7 0.9999998 0 0.8443083 0.8443081 0.8443081 0.1556918 0 0 0.9999984 0 1 1 1 0 0.9999988 1 0 1 0 1 1.2666e-6 0 1 0 1.11759e-6 1 0 0 0.9999989 0 0 1 0 1.56854e-7 0.1556918 0.1556919 0.1556919 0.8443082 0.8443083 0.8443081 1 1 0 1 0.1556918 0.1556919 0.1556919 0.8443082 9.998e-5 0.9999 1.00011e-4 9.998e-5 0.1557607 0.1557607 0.1557607 0.8442393 0.8442392 0.844239 0.9999 0.9999 9.998e-5 0.9999 0.1557607 0.1557607 0.1557607 0.8442393 1 0 0.9999992 1 0 1 0 1 9.31322e-7 0 1 0 0 1 8.19563e-7 0 1 0</float_array>
          <technique_common>
            <accessor source="#Cube_025-mesh-map-0-array" count="96" stride="2">
              <param name="S" type="float"/>
              <param name="T" type="float"/>
            </accessor>
          </technique_common>
        </source>
        <vertices id="Cube_025-mesh-vertices">
          <input semantic="POSITION" source="#Cube_025-mesh-positions"/>
        </vertices>
        <triangles material="gate_003-material" count="32">
          <input semantic="VERTEX" source="#Cube_025-mesh-vertices" offset="0"/>
          <input semantic="NORMAL" source="#Cube_025-mesh-normals" offset="1"/>
          <input semantic="TEXCOORD" source="#Cube_025-mesh-map-0" offset="2" set="0"/>
          <p>0 0 0 9 0 1 2 0 2 3 1 3 6 1 4 2 1 5 6 2 6 14 2 7 4 2 8 5 3 9 0 3 10 4 3 11 6 4 12 0 4 13 2 4 14 3 5 15 5 5 16 7 5 17 14 3 18 13 3 19 15 3 20 10 6 21 7 6 22 5 6 23 13 7 24 1 7 25 3 7 26 8 5 27 15 5 28 9 5 29 9 1 30 10 1 31 8 1 32 11 4 33 12 4 34 10 4 35 0 8 36 1 8 37 11 8 38 9 9 39 15 9 40 2 9 41 0 10 42 11 10 43 9 10 44 3 1 45 7 1 46 6 1 47 6 11 48 7 11 49 12 11 50 14 12 51 8 12 52 4 12 53 6 13 54 12 13 55 14 13 56 5 3 57 1 3 58 0 3 59 6 4 60 4 4 61 0 4 62 3 5 63 1 5 64 5 5 65 14 3 66 12 3 67 13 3 68 5 14 69 4 14 70 8 14 71 10 15 72 12 15 73 7 15 74 5 16 75 8 16 76 10 16 77 3 17 78 2 17 79 15 17 80 13 18 81 11 18 82 1 18 83 3 19 84 15 19 85 13 19 86 8 5 87 14 5 88 15 5 89 9 1 90 11 1 91 10 1 92 11 4 93 13 4 94 12 4 95</p>
        </triangles>
      </mesh>
    </geometry>
  </library_geometries>
  <library_visual_scenes>
    <visual_scene id="Scene" name="Scene">
      <node id="Light_001" name="Light.001" type="NODE">
        <matrix sid="transform">-0.2908646 -0.7711008 0.5663933 4.076245 0.9551712 -0.1998833 0.2183912 1.005454 -0.05518904 0.6045247 0.7946723 5.903862 0 0 0 1</matrix>
        <instance_light url="#Light_001-light"/>
      </node>
      <node id="Camera_001" name="Camera.001" type="NODE">
        <matrix sid="transform">0.6859207 -0.3240135 0.6515582 7.358891 0.7276763 0.3054209 -0.6141704 -6.925791 -4.01133e-9 0.8953956 0.4452714 4.958309 0 0 0 1</matrix>
        <instance_camera url="#Camera_001-camera"/>
      </node>
      <node id="newgate6" name="newgate6" type="NODE">
        <matrix sid="transform">1.421053 0 0 4.51273e-9 0 1.400001 0 -7.76102e-11 0 0 1.421053 0 0 0 0 1</matrix>
        <instance_geometry url="#Cube_025-mesh" name="newgate6">
          <bind_material>
            <technique_common>
              <instance_material symbol="gate_003-material" target="#gate_003-material">
                <bind_vertex_input semantic="Cube_025-mesh-map-0" input_semantic="TEXCOORD" input_set="0"/>
              </instance_material>
            </technique_common>
          </bind_material>
        </instance_geometry>
      </node>
      <node id="Camera" name="Camera" type="NODE">
        <matrix sid="transform">0.6859207 -0.3240135 0.6515582 7.358891 0.7276763 0.3054208 -0.6141704 -6.925791 0 0.8953956 0.4452714 4.958309 0 0 0 1</matrix>
        <instance_camera url="#Camera-camera"/>
      </node>
      <node id="Light" name="Light" type="NODE">
        <matrix sid="transform">-0.2908646 -0.7711008 0.5663932 4.076245 0.9551712 -0.1998834 0.2183912 1.005454 -0.05518906 0.6045247 0.7946723 5.903862 0 0 0 1</matrix>
        <instance_light url="#Light-light"/>
      </node>
    </visual_scene>
  </library_visual_scenes>
  <scene>
    <instance_visual_scene url="#Scene"/>
  </scene>
</COLLADA>